<svg width="752" height="355" viewBox="0 0 752 355" fill="none" xmlns="http://www.w3.org/2000/svg">
<path d="M49.332 181.529C51.7771 172.931 59.6305 167 68.5692 167H688.276C697.409 167 705.381 173.186 707.649 182.032L745.598 330.032C748.842 342.684 739.286 355 726.225 355H26.4807C13.2033 355 3.61159 342.3 7.24342 329.529L49.332 181.529Z" fill="#8B624A"/>
<rect x="464.088" y="97" width="151" height="202" rx="19" transform="rotate(20 464.088 97)" fill="#089B88"/>
<rect x="459.088" y="80" width="151" height="202" rx="19" transform="rotate(20 459.088 80)" fill="#00C9AF"/>
<path d="M211.319 308.289C218.77 321.196 234.567 326.675 248.41 321.156L358.43 277.288C361.092 276.227 363.589 274.789 365.843 273.02L460.848 198.447C472.592 189.228 475.77 172.778 468.305 159.848L392.742 28.969C383.814 13.5049 363.437 9.21555 349.032 19.7681L257.282 86.9821C255.513 88.2781 253.607 89.3762 251.599 90.2568L149.69 134.934C133.317 142.112 126.816 161.927 135.755 177.409L211.319 308.289Z" fill="#8ED5BA"/>
<path d="M230.607 309.104L354.145 258.894L266.467 107.031L142.46 156.429L230.607 309.104Z" fill="#F6F6F6"/>
<path d="M462.368 175.297L354.145 258.894L266.467 107.031L374.221 22.6218L462.368 175.297Z" fill="#F6F6F6"/>
<line x1="268.306" y1="104.262" x2="355.306" y2="258.262" stroke="#00C9AF" stroke-width="3"/>
</svg>
